<!DOCTYPE svg PUBLIC "-//W3C//DTD SVG 1.1//EN" "http://www.w3.org/Graphics/SVG/1.1/DTD/svg11.dtd">
<!-- Uploaded to: SVG Repo, www.svgrepo.com, Transformed by: SVG Repo Mixer Tools -->
<svg fill="#318B00" version="1.1" id="Capa_1" xmlns="http://www.w3.org/2000/svg" xmlns:xlink="http://www.w3.org/1999/xlink" width="800px" height="800px" viewBox="0 0 31.893 31.893" xml:space="preserve">
<g id="SVGRepo_bgCarrier" stroke-width="0"/>
<g id="SVGRepo_tracerCarrier" stroke-linecap="round" stroke-linejoin="round"/>
<g id="SVGRepo_iconCarrier"> <g> <g> <circle cx="14.066" cy="3.247" r="3.247"/> <path d="M15.624,6.849L14.855,7.17c-0.159-0.271-0.449-0.456-0.785-0.456c-0.337,0-0.625,0.185-0.783,0.45l-0.774-0.329 c-0.109-0.048-0.249-0.036-0.35,0.029C12.06,6.933,11.99,7.048,11.99,7.17v0.959c0,0.115,0.066,0.225,0.158,0.291 c0.093,0.071,0.217,0.09,0.328,0.058c0.301-0.093,0.678-0.206,0.891-0.272c0.168,0.203,0.42,0.334,0.702,0.334 c0.273,0,0.518-0.124,0.686-0.312c0.22,0.062,0.599,0.181,0.908,0.271c0.107,0.032,0.234,0.013,0.324-0.058 c0.094-0.067,0.154-0.177,0.154-0.291V7.184c0-0.125-0.067-0.237-0.167-0.304C15.871,6.813,15.734,6.8,15.624,6.849z"/> <path d="M13.708,27.662h10.417v-6.266h-2.729c0.001-0.037,0.002-0.07,0.002-0.104c0-0.91-0.483-1.717-1.211-2.158 c0.127-0.201,0.202-0.443,0.203-0.699c0.021-6.747-2.169-9.154-3.689-10.199l-2.634,3.531l-2.569-3.531 c-1.522,1.045-3.751,3.701-3.73,10.451c0.002,0.727,0.589,1.338,1.318,1.338h0.001c0.727,0,1.332-0.619,1.33-1.346 c-0.006-1.967,0.043-3.51,0.512-4.684v4.247c0,0.613,0.196,1.186,0.432,1.676v10.658c0,0.728,0.613,1.316,1.339,1.316 c0.728,0,1.343-0.59,1.343-1.316l0.111-0.01c0,0.729,0.604,1.326,1.33,1.326c0.726,0,1.359-0.607,1.359-1.336V28.68h-4.189v-8.342 h3.151c0.238-0.766,0.765-1.402,1.441-1.809c0.037-0.17,0.006-4.562,0.006-4.562c0.373,0.968,0.538,2.488,0.53,4.455 c0,0.193,0.036,0.375,0.108,0.541c-0.9,0.385-1.534,1.287-1.534,2.328c0,0.029,0.001,0.064,0.002,0.104h-2.648L13.708,27.662 L13.708,27.662z M17.399,21.296c0-0.813,0.663-1.479,1.478-1.479c0.813,0,1.478,0.67,1.478,1.481c0,0.03-0.002,0.063-0.003,0.103 h-2.947C17.4,21.359,17.399,21.326,17.399,21.296z"/> </g> </g> </g>
</svg>